<svg width="409" height="409" viewBox="0 0 409 409" fill="none" xmlns="http://www.w3.org/2000/svg">
<path d="M369.09 26.4141H253.13V234.726H369.09V26.4141Z" fill="#EBEBEB"/>
<path d="M363.266 32.4502H257.768V228.517H363.266V32.4502Z" fill="#FAFAFA"/>
<path d="M373.99 236.599L369.09 234.726V22.8799H373.99V236.599Z" fill="#E0E0E0"/>
<path d="M283.625 159.101L311.028 133.629C314.497 130.406 319.036 126.929 323.503 128.516C325.646 129.285 327.266 131.117 329.368 131.993C333.572 133.751 338.366 131.175 341.638 128.009C344.91 124.843 347.429 120.786 351.339 118.455C355.249 116.123 361.352 116.426 363.282 120.549V148.263L323.47 165.31L283.625 159.101Z" fill="#F5F5F5"/>
<path d="M257.768 143.151C267.862 139.061 277.94 142.537 285.163 150.701C286.685 152.418 288.067 154.398 290.161 155.347C292.991 156.631 296.255 155.674 299.347 155.347C303.588 154.927 307.863 155.689 311.697 157.549C315.532 159.408 318.777 162.293 321.073 165.883L287.372 182.415L257.768 182.202V143.151Z" fill="#E0E0E0"/>
<path d="M363.258 143.305C356.648 140.091 350.759 143.968 344.624 148.058C338.489 152.148 332.787 157.473 325.564 159.126C320.762 160.238 315.609 159.624 310.963 161.277C301.49 164.647 296.01 176.672 285.981 177.244C280.574 177.555 275.666 174.234 270.799 171.78C265.932 169.326 262.104 166.946 257.768 170.258V228.516H363.29L363.258 143.305Z" fill="#EBEBEB"/>
<path d="M365.556 88.8516H257.768V90.9375H365.556V88.8516Z" fill="#E0E0E0"/>
<path d="M365.556 135.543H257.768V137.629H365.556V135.543Z" fill="#E0E0E0"/>
<path d="M365.556 182.234H257.768V184.32H365.556V182.234Z" fill="#E0E0E0"/>
<path d="M307.846 89.8984V234.079H313.18V89.8984H307.846Z" fill="#E0E0E0"/>
<path d="M280.492 32.4502H278.079V89.8983H280.492V32.4502Z" fill="#E0E0E0"/>
<path d="M301.319 32.4502H298.906V89.8983H301.319V32.4502Z" fill="#E0E0E0"/>
<path d="M322.145 32.4502H319.732V89.8983H322.145V32.4502Z" fill="#E0E0E0"/>
<path d="M342.971 32.4502H340.558V89.8983H342.971V32.4502Z" fill="#E0E0E0"/>
<path d="M253.138 22.8799H248.23V236.01H253.138V22.8799Z" fill="#E0E0E0"/>
<path d="M373.998 20.7285H248.23V26.4136H373.998V20.7285Z" fill="#E0E0E0"/>
<path d="M377.311 237.303H244.746V242.595H377.311V237.303Z" fill="#E0E0E0"/>
<path d="M369.09 234.726L377.311 237.302H244.746L253.13 234.726H369.09Z" fill="#E0E0E0"/>
<path d="M123.445 29.5137H64.0332V115.625H123.445V29.5137Z" fill="#E0E0E0"/>
<path d="M120.475 29.5137H61.064V115.625H120.475V29.5137Z" fill="#F5F5F5"/>
<path d="M113.089 38.8389H68.4421V106.299H113.089V38.8389Z" fill="white"/>
<path d="M113.089 106.34C113.089 106.34 113.089 106.226 113.089 106.013C113.089 105.801 113.089 105.473 113.089 105.056C113.089 104.238 113.089 102.97 113.089 101.359C113.089 98.0869 113.089 93.4161 113.048 87.4529C113.048 75.5591 113.048 58.7083 112.974 38.8718L113.121 39.0273H68.4422L68.6058 38.8637C68.6058 64.3198 68.6058 87.7801 68.6058 106.324L68.4749 106.201L100.974 106.267H109.972H112.336H113.154H112.336H110.005H101.056L68.4749 106.332H68.344V106.34C68.344 87.7964 68.344 64.3362 68.344 38.88V38.7246H113.334V38.8718C113.334 58.7492 113.285 75.6328 113.26 87.551C113.26 93.4897 113.26 98.185 113.219 101.457C113.219 103.093 113.219 104.279 113.219 105.122C113.219 105.531 113.219 105.842 113.219 106.062C113.219 106.283 113.089 106.34 113.089 106.34Z" fill="#E0E0E0"/>
<path d="M120.639 29.5137C120.335 30.0597 119.979 30.5748 119.575 31.0515C118.888 31.9759 117.939 33.2356 116.794 34.5935C115.649 35.9513 114.627 37.1456 113.858 38.0045C113.462 38.4871 113.024 38.9333 112.549 39.3379C112.89 38.8119 113.276 38.3165 113.702 37.8573L116.565 34.3808C117.629 33.072 118.61 31.9022 119.428 30.9125C119.792 30.4132 120.197 29.9454 120.639 29.5137Z" fill="#E0E0E0"/>
<path d="M113.318 106.087C115.537 109.616 118.149 112.881 121.105 115.821L113.318 106.087Z" fill="white"/>
<path d="M121.105 115.821C120.608 115.461 120.153 115.046 119.747 114.586C118.707 113.529 117.727 112.414 116.81 111.249C115.886 110.098 115.023 108.9 114.226 107.658C113.868 107.159 113.564 106.624 113.318 106.062C113.719 106.522 114.086 107.012 114.414 107.527C115.068 108.451 115.984 109.703 117.064 111.052C118.144 112.402 119.158 113.564 119.911 114.406C120.342 114.849 120.741 115.322 121.105 115.821Z" fill="#E0E0E0"/>
<path d="M61.0557 115.559L68.8348 105.956L61.0557 115.559Z" fill="white"/>
<path d="M68.8348 105.956C67.6651 107.655 66.4092 109.293 65.072 110.864C63.8144 112.497 62.4738 114.064 61.0557 115.559C62.2201 113.856 63.4762 112.218 64.8185 110.651C66.0774 109.02 67.4179 107.453 68.8348 105.956Z" fill="#E0E0E0"/>
<path d="M61.064 29.5137C62.4002 30.9508 63.659 32.458 64.8349 34.029C66.0984 35.5344 67.2755 37.1102 68.3605 38.7489C67.0368 37.3097 65.7891 35.8026 64.6223 34.2335C63.3488 32.728 62.1609 31.1523 61.064 29.5137Z" fill="#E0E0E0"/>
<path d="M99.1825 52.541H84.2295V94.987H99.1825V52.541Z" fill="#E0E0E0"/>
<path d="M200.582 71.8369H153.612V139.927H200.582V71.8369Z" fill="#E0E0E0"/>
<path d="M198.226 71.8369H151.257V139.927H198.226V71.8369Z" fill="#FAFAFA"/>
<path d="M192.394 79.2158H157.089V132.558H192.394V79.2158Z" fill="white"/>
<path d="M192.394 132.516C192.394 132.516 192.394 132.426 192.394 132.254V131.502C192.394 130.831 192.394 129.866 192.394 128.573C192.394 126.021 192.394 122.291 192.394 117.588C192.394 108.181 192.394 94.8637 192.337 79.1826L192.451 79.2972H157.056L157.187 79.1745C157.187 99.2891 157.187 117.841 157.187 132.508L157.081 132.41L182.774 132.459H189.874H191.739H189.891H182.815L157.056 132.516H156.958C156.958 117.849 156.958 99.2973 156.958 79.1826V79.0518H192.5V79.1745C192.5 94.8882 192.459 108.23 192.443 117.62C192.443 122.316 192.443 126.038 192.443 128.582C192.443 129.85 192.443 130.823 192.443 131.486C192.443 131.813 192.443 132.058 192.443 132.23C192.443 132.402 192.394 132.516 192.394 132.516Z" fill="#E0E0E0"/>
<path d="M198.357 71.8369C198.128 72.2707 197.853 72.6792 197.539 73.0557C196.991 73.7838 196.222 74.7735 195.338 75.8533C194.455 76.9331 193.629 77.8738 193.015 78.5527C192.699 78.93 192.354 79.2827 191.985 79.6079C192.244 79.1882 192.543 78.7939 192.876 78.43L195.142 75.6897L197.4 72.9412C197.691 72.5495 198.01 72.1804 198.357 71.8369Z" fill="#E0E0E0"/>
<path d="M192.574 132.377C194.327 135.169 196.394 137.752 198.733 140.074L192.574 132.377Z" fill="white"/>
<path d="M198.774 140.074C198.38 139.789 198.018 139.463 197.694 139.101C197.064 138.463 196.23 137.547 195.371 136.483C194.642 135.57 193.959 134.62 193.326 133.637C193.046 133.243 192.807 132.821 192.615 132.377C192.93 132.744 193.219 133.132 193.482 133.539C193.997 134.267 194.725 135.256 195.576 136.32C196.426 137.383 197.212 138.316 197.825 138.978C198.166 139.321 198.483 139.688 198.774 140.074Z" fill="#E0E0E0"/>
<path d="M151.248 139.878L157.4 132.287L151.248 139.878Z" fill="white"/>
<path d="M157.4 132.279C156.477 133.624 155.483 134.918 154.422 136.156C153.431 137.452 152.371 138.695 151.248 139.878C152.171 138.534 153.165 137.239 154.226 136.001C155.927 133.899 157.351 132.238 157.4 132.279Z" fill="#E0E0E0"/>
<path d="M151.257 71.8369C152.316 72.973 153.313 74.1664 154.242 75.4116C155.244 76.6025 156.183 77.8449 157.056 79.1335C155.991 78.0028 154.991 76.812 154.062 75.567C153.06 74.3755 152.123 73.1303 151.257 71.8369Z" fill="#E0E0E0"/>
<path d="M181.392 90.0459H169.572V123.608H181.392V90.0459Z" fill="#F5F5F5"/>
<path d="M397.065 358.611C397.065 358.734 313.678 358.824 210.839 358.824C108 358.824 24.5889 358.734 24.5889 358.611C24.5889 358.488 107.959 358.398 210.839 358.398C313.719 358.398 397.065 358.497 397.065 358.611Z" fill="#263238"/>
<path d="M369.981 391.217C369.981 391.339 329.278 391.429 279.077 391.429C228.876 391.429 188.14 391.339 188.14 391.217C188.14 391.094 228.835 391.004 279.052 391.004C329.269 391.004 369.981 391.102 369.981 391.217Z" fill="#263238"/>
<path d="M347.912 338.292C347.949 338.18 347.996 338.07 348.051 337.965L348.468 337.016C349.015 335.78 349.456 334.499 349.785 333.188C350.841 328.319 350.805 323.276 349.679 318.423C348.982 315.06 348.066 311.745 346.938 308.501C345.777 304.975 344.427 301.245 343.331 297.204C342.088 292.991 341.487 288.615 341.548 284.223C341.72 279.625 343.077 275.036 344.574 270.48C346.071 265.924 347.609 261.433 348.067 256.942C348.589 252.621 347.73 248.246 345.613 244.443C343.634 240.795 341.147 237.678 339.282 234.447C337.541 231.451 336.256 228.211 335.47 224.836C334.347 219.945 334.266 214.872 335.233 209.948C335.576 208.148 336.097 206.386 336.787 204.688C336.767 204.805 336.737 204.92 336.697 205.032C336.615 205.286 336.509 205.621 336.378 206.046C335.988 207.34 335.666 208.654 335.413 209.981C334.525 214.879 334.656 219.908 335.797 224.754C336.595 228.088 337.882 231.286 339.617 234.243C341.482 237.441 343.977 240.541 345.998 244.239C348.176 248.113 349.072 252.577 348.558 256.991C348.092 261.556 346.538 266.055 345.049 270.619C343.56 275.184 342.21 279.724 342.039 284.239C341.972 288.586 342.559 292.918 343.781 297.09C344.861 301.106 346.186 304.844 347.331 308.378C348.453 311.641 349.355 314.975 350.03 318.358C351.282 324.575 350.922 329.81 349.99 333.237C349.641 334.552 349.17 335.831 348.583 337.057L348.092 337.99C348.042 338.097 347.982 338.198 347.912 338.292Z" fill="#263238"/>
<path d="M341.81 237.621C341.81 237.621 338.03 225.522 344.82 218.439C344.871 218.38 344.938 218.337 345.012 218.315C345.087 218.294 345.166 218.293 345.241 218.315C345.315 218.336 345.382 218.378 345.434 218.437C345.485 218.495 345.519 218.566 345.531 218.643C345.9 220.639 346.349 226.733 341.81 237.621Z" fill="#FF9A35"/>
<path d="M344.075 222.496C344.069 223.245 343.984 223.99 343.822 224.721C343.576 226.267 343.282 228.067 342.963 230.063L342.145 235.404C342.083 236.152 341.949 236.891 341.744 237.613C341.677 236.863 341.699 236.108 341.81 235.363C341.94 233.981 342.186 232.091 342.521 229.989C342.857 227.887 343.233 226.022 343.527 224.664C343.632 223.924 343.816 223.197 344.075 222.496Z" fill="#263238"/>
<path d="M346.26 266.169C346.26 266.169 348.574 253.703 357.891 250.627C357.965 250.602 358.044 250.598 358.119 250.615C358.195 250.632 358.264 250.67 358.319 250.724C358.374 250.779 358.413 250.847 358.432 250.923C358.45 250.998 358.447 251.077 358.423 251.15C357.81 253.073 355.364 258.66 346.26 266.169Z" fill="#FF9A35"/>
<path d="M355.348 253.834C354.992 254.496 354.567 255.118 354.08 255.691L350.808 260.002L347.536 264.321C347.127 264.951 346.662 265.543 346.145 266.088C346.44 265.396 346.814 264.74 347.257 264.133C348.018 262.971 349.123 261.4 350.399 259.715C351.675 258.03 352.853 256.542 353.777 255.478C354.238 254.874 354.765 254.322 355.348 253.834Z" fill="#263238"/>
<path d="M343.74 297.449C343.74 297.449 342.333 284.844 350.349 279.183C350.413 279.139 350.487 279.112 350.565 279.107C350.642 279.101 350.72 279.117 350.789 279.152C350.858 279.188 350.916 279.241 350.957 279.307C350.998 279.373 351.019 279.449 351.02 279.527C350.996 281.556 350.276 287.617 343.74 297.449Z" fill="#FF9A35"/>
<path d="M348.861 283.028C348.704 283.763 348.476 284.48 348.182 285.171L346.317 290.243C345.622 292.141 345 293.859 344.468 295.323C344.258 296.044 343.985 296.745 343.65 297.417C343.73 296.669 343.898 295.933 344.149 295.225C344.534 293.883 345.139 292.067 345.867 290.079C346.595 288.092 347.323 286.317 347.871 285.049C348.121 284.339 348.453 283.661 348.861 283.028Z" fill="#263238"/>
<path d="M350.758 328.91C350.758 328.91 349.801 316.264 358.014 310.914C358.078 310.87 358.153 310.844 358.23 310.84C358.308 310.836 358.385 310.854 358.453 310.891C358.521 310.929 358.577 310.984 358.615 311.052C358.653 311.12 358.672 311.196 358.668 311.274C358.57 313.294 357.638 319.323 350.758 328.91Z" fill="#FF9A35"/>
<path d="M356.386 314.66C356.21 315.388 355.958 316.096 355.634 316.771C355.045 318.218 354.358 319.912 353.589 321.777C352.82 323.642 352.141 325.343 351.56 326.791C351.323 327.503 351.025 328.193 350.668 328.852C350.769 328.106 350.962 327.376 351.241 326.677C351.675 325.351 352.345 323.56 353.147 321.597C353.949 319.634 354.734 317.891 355.331 316.64C355.606 315.942 355.96 315.278 356.386 314.66Z" fill="#263238"/>
<path d="M336.37 226.987C336.37 226.987 325.131 221.122 324.918 211.306C324.915 211.229 324.933 211.152 324.971 211.084C325.009 211.017 325.066 210.961 325.134 210.924C325.202 210.886 325.279 210.869 325.356 210.873C325.434 210.877 325.508 210.902 325.572 210.946C327.241 212.1 331.863 216.083 336.37 226.987Z" fill="#FF9A35"/>
<path d="M327.249 214.677C327.769 215.218 328.238 215.807 328.648 216.435C329.556 217.703 330.627 219.184 331.813 220.82L334.995 225.188C335.48 225.761 335.908 226.38 336.272 227.037C335.697 226.553 335.181 226.004 334.734 225.401C333.842 224.329 332.664 222.816 331.462 221.098C330.259 219.38 329.155 217.826 328.402 216.632C327.941 216.029 327.554 215.372 327.249 214.677Z" fill="#263238"/>
<path d="M348.468 252.983C348.468 252.983 336.893 247.805 336.075 238.03C336.067 237.953 336.081 237.875 336.115 237.805C336.149 237.735 336.201 237.676 336.266 237.635C336.332 237.593 336.408 237.57 336.485 237.569C336.563 237.568 336.639 237.589 336.705 237.629C338.423 238.676 343.282 242.365 348.468 252.983Z" fill="#FF9A35"/>
<path d="M338.587 241.253C339.142 241.746 339.646 242.295 340.092 242.889L343.519 247.069L346.955 251.233C347.473 251.776 347.939 252.368 348.345 252.999C347.743 252.551 347.194 252.035 346.709 251.462C345.752 250.447 344.493 249.008 343.151 247.372C341.81 245.736 340.648 244.222 339.822 243.102C339.343 242.533 338.929 241.913 338.587 241.253Z" fill="#263238"/>
<path d="M341.785 281.973C341.785 281.973 333.834 272.092 337.564 263.02C337.592 262.947 337.639 262.884 337.701 262.836C337.762 262.789 337.836 262.76 337.913 262.752C337.991 262.744 338.069 262.759 338.139 262.793C338.208 262.827 338.267 262.88 338.308 262.946C339.372 264.672 342.022 270.178 341.785 281.973Z" fill="#FF9A35"/>
<path d="M338.349 267.036C338.616 267.74 338.811 268.469 338.93 269.212C339.257 270.733 339.65 272.525 340.075 274.496L341.237 279.772C341.45 280.491 341.598 281.228 341.679 281.973C341.336 281.302 341.08 280.59 340.918 279.854C340.525 278.521 340.1 276.664 339.617 274.594C339.135 272.525 338.799 270.644 338.603 269.277C338.436 268.542 338.351 267.79 338.349 267.036Z" fill="#263238"/>
<path d="M349.654 316.092C349.654 316.092 338.202 310.726 337.515 300.935C337.508 300.857 337.522 300.779 337.557 300.709C337.592 300.639 337.645 300.58 337.712 300.539C337.778 300.499 337.855 300.477 337.933 300.478C338.011 300.478 338.087 300.5 338.153 300.542C339.871 301.622 344.673 305.393 349.654 316.092Z" fill="#FF9A35"/>
<path d="M339.994 304.198C340.547 304.708 341.043 305.275 341.474 305.892L344.828 310.129L348.198 314.358C348.708 314.906 349.163 315.504 349.556 316.141C348.95 315.684 348.401 315.157 347.92 314.57C346.988 313.548 345.744 312.116 344.435 310.423C343.127 308.73 341.981 307.225 341.163 306.096C340.707 305.507 340.315 304.871 339.994 304.198Z" fill="#263238"/>
<path d="M372.534 266.234C372.534 266.234 372.534 266.333 372.534 266.521C372.534 266.709 372.534 267.003 372.534 267.339C372.493 268.099 372.452 269.13 372.395 270.406C372.247 273.114 372.043 276.885 371.789 281.392C370.971 285.981 368.632 291.069 365.491 296.001C363.192 299.641 360.779 302.946 358.693 306.022C356.804 308.711 355.101 311.526 353.597 314.447C352.615 316.431 351.818 318.501 351.217 320.631C351.012 321.392 350.857 321.981 350.775 322.382C350.738 322.591 350.68 322.797 350.603 322.995C350.605 322.783 350.63 322.572 350.677 322.366C350.734 321.957 350.857 321.359 351.037 320.59C351.571 318.424 352.328 316.319 353.294 314.308C354.764 311.348 356.448 308.499 358.333 305.785C360.403 302.684 362.799 299.372 365.09 295.756C368.215 290.848 370.538 285.834 371.388 281.318C371.707 276.811 371.969 273.048 372.157 270.349C372.261 269.067 372.343 268.045 372.403 267.281C372.403 266.954 372.468 266.692 372.485 266.463C372.494 266.386 372.511 266.309 372.534 266.234Z" fill="#263238"/>
<path d="M365.695 295.077C365.695 295.077 370.554 283.364 364.444 275.666C364.397 275.604 364.333 275.556 364.261 275.527C364.188 275.499 364.109 275.492 364.032 275.506C363.955 275.521 363.884 275.556 363.827 275.609C363.77 275.662 363.728 275.73 363.707 275.805C363.192 277.793 362.161 283.846 365.695 295.077Z" fill="#FF9A35"/>
<path d="M364.828 279.757C365.039 280.479 365.168 281.223 365.213 281.974C365.384 283.348 365.581 285.246 365.728 287.364C365.875 289.483 365.949 291.389 365.949 292.779C365.994 293.529 365.95 294.281 365.818 295.021C365.675 294.285 365.607 293.537 365.613 292.788C365.515 291.233 365.392 289.409 365.253 287.397C365.114 285.385 364.983 283.552 364.877 281.998C364.787 281.255 364.77 280.504 364.828 279.757Z" fill="#263238"/>
<g opacity="0.3">
<path opacity="0.3" d="M365.695 295.077C365.695 295.077 370.554 283.364 364.444 275.666C364.397 275.604 364.333 275.556 364.261 275.527C364.188 275.499 364.109 275.492 364.032 275.506C363.955 275.521 363.884 275.556 363.827 275.609C363.77 275.662 363.728 275.73 363.707 275.805C363.192 277.793 362.161 283.846 365.695 295.077Z" fill="black"/>
</g>
<path d="M350.628 323.299C350.628 323.299 354.53 311.234 347.806 304.084C347.754 304.026 347.687 303.984 347.613 303.962C347.539 303.94 347.46 303.94 347.385 303.96C347.31 303.98 347.243 304.021 347.19 304.078C347.137 304.134 347.101 304.205 347.086 304.281C346.701 306.276 346.194 312.362 350.628 323.299Z" fill="#FF9A35"/>
<path d="M348.468 308.125C348.741 308.826 348.931 309.556 349.032 310.301C349.319 311.659 349.662 313.573 349.99 315.634C350.317 317.696 350.538 319.626 350.644 321.008C350.756 321.753 350.772 322.509 350.693 323.258C350.499 322.535 350.373 321.796 350.317 321.049C350.088 319.512 349.818 317.704 349.499 315.7C349.18 313.696 348.926 311.896 348.681 310.358C348.537 309.623 348.466 308.875 348.468 308.125Z" fill="#263238"/>
<g opacity="0.3">
<path opacity="0.3" d="M350.628 323.299C350.628 323.299 354.53 311.234 347.806 304.084C347.754 304.026 347.687 303.984 347.613 303.962C347.539 303.94 347.46 303.94 347.385 303.96C347.31 303.98 347.243 304.021 347.19 304.078C347.137 304.134 347.101 304.205 347.086 304.281C346.701 306.276 346.194 312.362 350.628 323.299Z" fill="black"/>
</g>
<path d="M371.896 280.763C371.896 280.763 382.284 273.49 381.229 263.74C381.223 263.662 381.195 263.588 381.149 263.525C381.103 263.462 381.04 263.413 380.968 263.384C380.895 263.355 380.816 263.347 380.74 263.361C380.663 263.375 380.592 263.41 380.534 263.462C379.028 264.82 374.955 269.368 371.896 280.763Z" fill="#FF9A35"/>
<g opacity="0.3">
<path opacity="0.3" d="M371.896 280.763C371.896 280.763 382.284 273.49 381.229 263.74C381.223 263.662 381.195 263.588 381.149 263.525C381.103 263.462 381.04 263.413 380.968 263.384C380.895 263.355 380.816 263.347 380.74 263.361C380.663 263.375 380.592 263.41 380.534 263.462C379.028 264.82 374.955 269.368 371.896 280.763Z" fill="black"/>
</g>
<path d="M379.356 267.38C379.146 268.103 378.855 268.8 378.489 269.458C377.9 270.709 377.041 272.419 376.035 274.284C375.029 276.149 374.063 277.801 373.311 278.971C372.945 279.629 372.503 280.241 371.994 280.795C372.275 280.099 372.62 279.431 373.025 278.799L375.618 274.055C376.575 272.28 377.45 270.676 378.194 269.302C378.509 268.62 378.898 267.975 379.356 267.38Z" fill="#263238"/>
<path d="M354.816 311.34C354.816 311.34 367.348 309.385 370.701 300.158C370.729 300.085 370.736 300.006 370.721 299.93C370.706 299.854 370.67 299.784 370.617 299.727C370.565 299.67 370.497 299.629 370.423 299.608C370.348 299.587 370.269 299.588 370.194 299.61C368.247 300.207 362.587 302.448 354.816 311.34Z" fill="#FF9A35"/>
<g opacity="0.3">
<path opacity="0.3" d="M354.816 311.34C354.816 311.34 367.348 309.385 370.701 300.158C370.729 300.085 370.736 300.006 370.721 299.93C370.706 299.854 370.67 299.784 370.617 299.727C370.565 299.67 370.497 299.629 370.423 299.608C370.348 299.587 370.269 299.588 370.194 299.61C368.247 300.207 362.587 302.448 354.816 311.34Z" fill="black"/>
</g>
<path d="M367.413 302.604C366.906 303.159 366.338 303.656 365.72 304.084C364.64 304.951 363.11 306.113 361.384 307.356C359.658 308.599 358.071 309.647 356.885 310.366C356.27 310.8 355.602 311.155 354.897 311.422C355.456 310.925 356.059 310.478 356.697 310.088L361.114 306.972L365.523 303.839C366.11 303.365 366.743 302.951 367.413 302.604Z" fill="#263238"/>
<path d="M342.865 334.391L339.208 358.996H361.981L359.037 334.391H342.865Z" fill="#455A64"/>
<path d="M359.92 342.015C356.864 342.252 353.798 342.331 350.734 342.252C347.67 342.331 344.604 342.252 341.548 342.015C344.604 341.778 347.67 341.699 350.734 341.778C353.798 341.699 356.864 341.778 359.92 342.015Z" fill="#263238"/>
<path d="M360.394 343.977C360.394 344.108 356.149 344.215 350.906 344.215C345.662 344.215 341.425 344.108 341.425 343.977C341.425 343.847 345.67 343.74 350.906 343.74C356.141 343.74 360.394 343.847 360.394 343.977Z" fill="#263238"/>
<path d="M350.709 391.2C352.779 378.333 350.824 364.697 344.386 353.368C337.948 342.038 326.889 333.228 314.177 330.357C301.466 327.486 287.298 330.914 277.891 339.936C267.183 338.725 256.157 338.856 245.866 342.038C235.576 345.22 226.021 351.74 220.655 361.057C215.289 370.374 214.676 382.709 220.443 391.814L350.709 391.2Z" fill="#FF9A35"/>
<path d="M308.427 329.368C308.427 329.466 306.946 329.417 304.656 329.989L303.764 330.226L302.815 330.562C302.122 330.798 301.442 331.071 300.778 331.38C299.269 332.132 297.838 333.033 296.509 334.071C295.193 335.134 293.983 336.32 292.893 337.613C292.435 338.243 291.944 338.799 291.584 339.396L291.036 340.214L290.594 341.032C289.474 343.11 289.138 344.558 289.048 344.525C289.095 344.183 289.174 343.846 289.286 343.519C289.326 343.347 289.376 343.175 289.433 342.979L289.67 342.366C289.855 341.861 290.074 341.369 290.324 340.893L290.75 340.075C290.93 339.797 291.11 339.511 291.29 339.208C291.641 338.595 292.108 338.022 292.59 337.376C293.681 336.045 294.903 334.828 296.239 333.744C297.595 332.688 299.06 331.778 300.607 331.028C301.29 330.719 301.989 330.446 302.701 330.21L303.674 329.891L304.59 329.678C305.113 329.553 305.643 329.463 306.177 329.408L306.84 329.327H307.396C307.74 329.3 308.086 329.314 308.427 329.368Z" fill="#FAFAFA"/>
<path d="M276.026 343.798C275.961 343.81 275.894 343.81 275.83 343.798L275.273 343.855C274.774 343.921 274.038 343.945 273.106 344.076C270.455 344.394 267.833 344.913 265.261 345.63C263.488 346.123 261.741 346.705 260.026 347.373C258.066 348.151 256.154 349.044 254.3 350.047C250.038 352.349 246.125 355.244 242.676 358.645C240.9 360.41 239.241 362.29 237.711 364.273C236.307 366.135 235.02 368.083 233.858 370.105C230.579 375.879 228.501 382.256 227.748 388.853C227.617 389.786 227.592 390.489 227.535 391.021C227.535 391.25 227.535 391.43 227.478 391.586C227.486 391.648 227.486 391.711 227.478 391.774C227.469 391.711 227.469 391.648 227.478 391.586C227.478 391.43 227.478 391.242 227.478 391.013C227.478 390.514 227.478 389.778 227.608 388.837C227.843 386.166 228.316 383.521 229.024 380.935C230.065 377.089 231.582 373.388 233.539 369.917C234.699 367.868 235.991 365.898 237.408 364.019C238.942 362.017 240.609 360.12 242.398 358.342C245.873 354.911 249.827 352.002 254.136 349.704C256.012 348.701 257.946 347.81 259.928 347.037C261.659 346.381 263.423 345.814 265.212 345.336C267.805 344.643 270.45 344.167 273.122 343.912C274.063 343.806 274.758 343.806 275.298 343.773H275.862C275.918 343.775 275.972 343.783 276.026 343.798Z" fill="#FAFAFA"/>
<path d="M313.196 334.489C312.986 334.51 312.775 334.51 312.566 334.489C312.149 334.489 311.535 334.448 310.75 334.489C308.533 334.587 306.336 334.952 304.206 335.577C301.041 336.491 298.06 337.95 295.396 339.888C293.818 341.014 292.367 342.308 291.069 343.749C289.655 345.276 288.437 346.974 287.445 348.804L286.922 349.785L286.824 349.965L286.635 349.884C283.072 348.291 279.162 347.632 275.273 347.969C273.587 348.115 271.918 348.424 270.292 348.894C268.884 349.32 267.515 349.867 266.202 350.53C264.286 351.5 262.516 352.733 260.942 354.194C259.846 355.225 259.306 355.83 259.265 355.83C259.381 355.662 259.509 355.504 259.65 355.356C260.02 354.908 260.416 354.482 260.836 354.08C262.38 352.577 264.139 351.312 266.055 350.325C267.379 349.638 268.761 349.069 270.185 348.624C271.834 348.134 273.528 347.808 275.241 347.65C279.199 347.286 283.185 347.945 286.815 349.565L286.537 349.663L287.077 348.665C288.081 346.803 289.318 345.076 290.758 343.528C292.08 342.071 293.559 340.765 295.167 339.634C297.875 337.685 300.908 336.234 304.124 335.348C306.283 334.746 308.51 334.425 310.75 334.391C311.568 334.391 312.157 334.44 312.574 334.448C312.782 334.438 312.991 334.452 313.196 334.489Z" fill="#263238"/>
<g opacity="0.2">
<path opacity="0.2" d="M262.145 352.992C262.848 350.084 264.132 347.347 265.919 344.947C267.705 342.546 269.958 340.53 272.541 339.021C277.687 336.158 283.642 335.021 289.523 334.767C293.139 334.604 297.016 334.841 299.936 336.984C299.936 336.984 292.296 339.724 286.717 349.728C282.756 347.789 278.31 347.064 273.937 347.644C269.565 348.225 265.462 350.086 262.145 352.992Z" fill="black"/>
</g>
<path d="M263.249 391.822C263.188 391.668 263.138 391.51 263.101 391.348C263.02 390.988 262.905 390.53 262.766 389.957C262.692 389.647 262.619 389.311 262.529 388.943C262.439 388.575 262.406 388.125 262.341 387.724C262.168 386.737 262.053 385.74 261.997 384.739C261.997 384.182 261.932 383.593 261.891 382.988C261.85 382.383 261.891 381.745 261.891 381.09C261.916 379.693 262.017 378.297 262.193 376.91C263.023 370.525 265.344 364.425 268.966 359.102L270.21 357.344C270.602 356.763 271.077 356.272 271.478 355.757C271.879 355.241 272.296 354.743 272.713 354.309L273.924 353.049C274.668 352.231 275.47 351.593 276.116 350.988C276.671 350.474 277.258 349.995 277.874 349.556L279.02 348.697C279.29 348.509 279.429 348.411 279.445 348.428C279.331 348.549 279.208 348.661 279.077 348.763L277.973 349.679C277.381 350.146 276.813 350.643 276.271 351.168C275.641 351.781 274.872 352.419 274.136 353.254L272.958 354.53C272.533 354.963 272.14 355.479 271.756 355.978C271.371 356.477 270.897 356.992 270.512 357.565L269.294 359.323C267.556 361.98 266.098 364.809 264.942 367.765C263.832 370.735 263.04 373.814 262.578 376.951C262.395 378.324 262.283 379.706 262.242 381.09C262.242 381.745 262.177 382.366 262.242 382.972C262.308 383.577 262.292 384.158 262.316 384.706C262.357 385.702 262.45 386.696 262.594 387.683C262.651 388.117 262.676 388.501 262.75 388.902C262.823 389.303 262.881 389.606 262.946 389.917C263.052 390.489 263.134 390.955 263.208 391.315C263.24 391.482 263.254 391.652 263.249 391.822Z" fill="#FAFAFA"/>
<path d="M306.84 391.405C306.84 391.405 306.701 391.315 306.455 391.102L305.392 390.178C304.942 389.769 304.378 389.278 303.756 388.648C303.134 388.018 302.423 387.347 301.727 386.505C301.032 385.662 300.198 384.787 299.437 383.748C299.052 383.233 298.619 382.717 298.243 382.153L297.065 380.37C295.364 377.724 293.892 374.938 292.664 372.043C290.502 366.756 289.001 361.223 288.198 355.568C287.887 353.408 287.682 351.65 287.592 350.431C287.551 349.858 287.519 349.392 287.494 349.024C287.471 348.861 287.471 348.696 287.494 348.533C287.536 348.692 287.566 348.853 287.584 349.016C287.633 349.384 287.69 349.834 287.764 350.415C287.903 351.625 288.157 353.376 288.508 355.527C289.397 361.137 290.925 366.626 293.065 371.887C294.285 374.759 295.735 377.527 297.4 380.165L298.57 381.908C298.946 382.48 299.388 382.996 299.74 383.544C300.492 384.582 301.277 385.474 301.973 386.317C302.668 387.159 303.38 387.838 303.952 388.484C304.525 389.131 305.081 389.638 305.515 390.063L306.521 391.045C306.638 391.154 306.745 391.275 306.84 391.405Z" fill="#FAFAFA"/>
<path d="M340.043 391.25C340.03 391.18 340.03 391.108 340.043 391.037V388.093C340.043 386.064 339.961 383.127 339.585 379.52C339.144 375.295 338.284 371.124 337.016 367.07C335.511 362.095 333.207 357.399 330.194 353.164C328.629 350.983 326.847 348.966 324.877 347.143C323.029 345.461 321.005 343.983 318.84 342.734C315.153 340.634 311.08 339.298 306.865 338.808C304.022 338.489 301.147 338.61 298.341 339.168L297.024 339.471C296.648 339.569 296.337 339.667 296.075 339.741L295.494 339.904L295.29 339.945C295.29 339.945 295.347 339.945 295.478 339.863L296.051 339.659C296.304 339.577 296.615 339.454 296.991 339.348L298.308 339.013C301.125 338.379 304.026 338.207 306.897 338.505C311.161 338.961 315.286 340.283 319.02 342.391C321.223 343.64 323.281 345.129 325.155 346.833C327.152 348.672 328.958 350.708 330.546 352.91C333.58 357.187 335.893 361.931 337.392 366.955C338.637 371.038 339.459 375.237 339.846 379.487C340.11 382.348 340.216 385.22 340.165 388.093C340.165 389.115 340.116 389.9 340.083 390.432V391.046C340.08 391.115 340.066 391.184 340.043 391.25Z" fill="#FAFAFA"/>
<path d="M212.68 185.424C212.083 185.154 211.547 184.766 211.104 184.282C210.661 183.799 210.321 183.231 210.104 182.612C209.887 181.994 209.797 181.338 209.841 180.684C209.884 180.03 210.06 179.391 210.357 178.807C211.281 177.171 213.138 176.181 213.727 174.422C214.054 173.079 213.9 171.664 213.293 170.422C212.683 169.194 212.219 167.898 211.911 166.561C211.77 165.889 211.824 165.19 212.065 164.547C212.307 163.903 212.728 163.342 213.277 162.929C214.913 161.948 217.023 163.093 218.3 164.508C219.625 166.012 220.562 167.817 221.028 169.767C221.494 171.716 221.476 173.75 220.974 175.69C220.525 177.367 219.715 178.921 219.199 180.598C218.578 182.234 218.578 184.042 219.199 185.678" fill="#F5F5F5"/>
<path d="M214.578 167.747C214.578 167.747 214.782 167.87 215.06 168.189C215.456 168.653 215.769 169.181 215.985 169.751C216.309 170.598 216.454 171.504 216.41 172.41C216.352 173.534 215.981 174.619 215.338 175.543C214.631 176.342 213.983 177.193 213.4 178.087C213.021 178.846 212.851 179.693 212.909 180.541C212.99 181.333 213.209 182.105 213.555 182.823C213.385 182.677 213.248 182.495 213.154 182.291C212.858 181.758 212.671 181.171 212.606 180.565C212.501 179.652 212.654 178.728 213.048 177.898C213.619 176.97 214.27 176.094 214.995 175.281C215.589 174.418 215.942 173.413 216.017 172.369C216.079 171.511 215.97 170.649 215.698 169.833C215.409 169.096 215.033 168.395 214.578 167.747Z" fill="#263238"/>
<path d="M217.498 167.429C217.498 167.429 217.702 167.551 217.989 167.879C218.377 168.343 218.686 168.868 218.905 169.433C219.23 170.282 219.375 171.191 219.33 172.099C219.272 173.221 218.901 174.303 218.259 175.224C217.553 176.026 216.905 176.876 216.32 177.768C215.941 178.528 215.771 179.375 215.829 180.222C215.91 181.015 216.129 181.787 216.475 182.504C216.475 182.504 216.287 182.349 216.075 181.981C215.779 181.445 215.593 180.855 215.526 180.247C215.421 179.334 215.574 178.41 215.968 177.58C216.541 176.653 217.192 175.778 217.915 174.962C218.51 174.104 218.863 173.101 218.938 172.059C219.003 171.2 218.894 170.338 218.619 169.523C218.328 168.783 217.952 168.081 217.498 167.429Z" fill="#263238"/>
<path d="M209.465 149.408C209.109 149.618 208.806 149.909 208.582 150.257C208.357 150.605 208.217 151.001 208.173 151.412C208.098 152.244 208.284 153.079 208.704 153.801C209.027 154.408 209.507 154.916 210.095 155.273C210.388 155.45 210.713 155.566 211.052 155.614C211.391 155.662 211.736 155.64 212.066 155.551C212.485 155.394 212.863 155.144 213.173 154.822C213.483 154.499 213.717 154.111 213.858 153.686C214.139 153.02 214.23 152.29 214.122 151.575C214.014 150.861 213.71 150.19 213.244 149.637C212.753 149.111 212.078 148.794 211.36 148.751C210.641 148.708 209.933 148.944 209.383 149.408" fill="#F5F5F5"/>
<path d="M219.911 187.6C219.911 187.527 220.157 187.306 220.729 187.101C221.565 186.832 222.452 186.756 223.322 186.88C224.651 187.063 225.897 187.632 226.905 188.516C227.782 189.287 228.443 190.273 228.823 191.377C229.204 192.481 229.29 193.665 229.074 194.812C228.857 195.96 228.346 197.031 227.59 197.921C226.834 198.81 225.859 199.488 224.762 199.887C223.937 200.195 223.054 200.313 222.177 200.23C221.563 200.165 221.253 200.009 221.261 199.936C221.261 199.715 222.619 199.936 224.41 199.052C225.427 198.554 226.296 197.798 226.93 196.86C227.658 195.705 227.973 194.337 227.825 192.979C227.676 191.621 227.072 190.354 226.112 189.384C225.29 188.604 224.277 188.057 223.175 187.797C221.236 187.322 219.968 187.805 219.911 187.6Z" fill="#455A64"/>
<path d="M206.071 184.549L207.347 202.267C207.395 202.929 207.694 203.548 208.184 203.997C208.674 204.446 209.316 204.69 209.981 204.68L220.86 204.5C221.541 204.489 222.19 204.211 222.667 203.726C223.145 203.241 223.412 202.587 223.412 201.907V184.549H206.071Z" fill="#455A64"/>
<path d="M196.549 196.254L206.75 191.158L211.887 190.774L216.795 190.332C216.795 190.332 217.343 192.164 213.817 193.359C210.946 194.324 208.312 195.158 208.312 195.158C208.312 195.158 209.13 199.993 206.455 202.659C204.928 204.216 203.147 205.499 201.187 206.455L196.549 196.254Z" fill="#FFBE9D"/>
<path d="M32.957 161.579L50.135 321.343L128.524 340.157L208.263 317.057C208.263 317.057 218.234 239.412 151.33 230.095C151.33 230.095 154.512 162.43 128.868 151.444L32.957 161.579Z" fill="#FF9A35"/>
<path d="M118.046 152.59L118.455 152.77C118.852 152.958 119.237 153.171 119.608 153.408C121.041 154.33 122.32 155.473 123.395 156.794C126.275 160.197 129.121 166.152 131.175 173.972C133.228 181.792 134.757 191.388 135.682 202.251C136.648 214.222 136.967 226.237 136.639 238.243L136.459 238.03C138.463 238.324 140.549 238.545 142.553 238.913C144.557 239.281 146.643 239.666 148.696 240.279C152.879 241.339 156.942 242.827 160.819 244.721C166.196 247.337 171.089 250.847 175.289 255.102C175.78 255.641 176.263 256.181 176.754 256.738L177.482 257.556L178.152 258.374L179.494 260.059C179.903 260.648 180.312 261.237 180.713 261.817C181.531 262.963 182.218 264.214 182.954 265.4L183.927 267.249L184.41 268.173L184.844 269.114C187.075 273.947 188.665 279.051 189.572 284.296C190.009 286.758 190.307 289.244 190.463 291.74C190.623 294.123 190.623 296.514 190.463 298.897V299.02H190.34L154.839 308.018L144.95 310.472L142.357 311.11C141.768 311.249 141.457 311.306 141.457 311.306L142.34 311.053L144.925 310.366L154.79 307.789L190.259 298.627L190.128 298.783C190.283 296.419 190.283 294.047 190.128 291.683C189.969 289.2 189.668 286.728 189.228 284.28C188.321 279.07 186.734 274.001 184.508 269.204L184.05 268.304L183.567 267.388L182.594 265.556C181.858 264.378 181.203 263.102 180.369 261.997L179.142 260.255L177.817 258.578L177.146 257.76L176.426 256.942L174.97 255.347C170.802 251.129 165.948 247.649 160.614 245.057C156.763 243.175 152.728 241.694 148.573 240.639C146.553 240.034 144.483 239.715 142.463 239.281C140.442 238.848 138.373 238.693 136.393 238.39H136.205V238.202C136.539 226.224 136.236 214.237 135.297 202.292C134.397 191.437 132.95 181.842 130.888 174.054C128.827 166.267 126.087 160.32 123.256 156.876C122.197 155.556 120.945 154.403 119.543 153.457C119.178 153.217 118.801 152.996 118.414 152.794L118.046 152.59Z" fill="#263238"/>
<path d="M139.682 292.656C139.735 292.798 139.768 292.947 139.78 293.098C139.829 293.433 139.894 293.851 139.976 294.366C140.148 295.47 140.344 297.073 140.565 299.061C140.99 303.028 141.383 308.534 141.563 314.603C141.743 320.673 141.645 326.219 141.563 330.211C141.506 332.157 141.457 333.753 141.416 334.93C141.416 335.454 141.367 335.879 141.35 336.215C141.355 336.366 141.338 336.518 141.301 336.665C141.282 336.515 141.282 336.364 141.301 336.215C141.301 335.871 141.301 335.446 141.301 334.93C141.301 333.753 141.301 332.149 141.301 330.202C141.301 326.211 141.35 320.705 141.187 314.62C141.023 308.534 140.663 303.037 140.312 299.078C140.132 297.139 139.976 295.552 139.862 294.382C139.813 293.859 139.772 293.442 139.747 293.098C139.706 292.954 139.684 292.806 139.682 292.656Z" fill="#263238"/>
<path d="M151.87 229.482C151.108 229.903 150.321 230.277 149.514 230.603C148.058 231.266 146.062 232.239 143.903 233.376C141.743 234.513 139.853 235.683 138.496 236.534C137.78 237.026 137.034 237.474 136.262 237.875C136.896 237.277 137.586 236.743 138.324 236.28C140.057 235.092 141.854 233.999 143.706 233.008C145.562 232.006 147.474 231.11 149.432 230.325C150.213 229.96 151.03 229.678 151.87 229.482Z" fill="#263238"/>
<path d="M78.0045 199.282C77.9259 199.132 77.8681 198.972 77.8327 198.807C77.7264 198.447 77.5873 197.989 77.4237 197.425C77.0556 196.165 76.5566 194.431 75.9513 192.312C74.3991 186.686 72.2806 181.232 69.6282 176.034C66.9312 170.86 63.1374 166.338 58.5115 162.782C57.0965 161.727 55.591 160.799 54.0125 160.009C52.8919 159.453 52.2457 159.191 52.262 159.191C52.427 159.23 52.5884 159.282 52.7446 159.347C53.0473 159.478 53.5136 159.625 54.078 159.903C55.7029 160.635 57.2487 161.532 58.6915 162.578C60.8336 164.126 62.7881 165.919 64.5157 167.919C66.6305 170.361 68.4711 173.027 70.0044 175.87C72.6757 181.079 74.766 186.565 76.2376 192.23C76.8347 194.398 77.2846 196.157 77.5791 197.376C77.7182 197.956 77.8327 198.423 77.9145 198.783C77.9644 198.945 77.9946 199.112 78.0045 199.282Z" fill="#263238"/>
<path d="M84.7611 159.331L88.1067 198.096L107.526 196.55C107.649 194.284 107.526 185.507 107.526 185.507C107.526 185.507 115.6 184.255 115.706 176.173C115.755 172.255 115.191 164.149 114.602 156.844C114.28 152.948 112.444 149.332 109.489 146.773C106.533 144.213 102.692 142.913 98.7898 143.151C96.7978 143.268 94.8494 143.783 93.0594 144.665C91.2693 145.546 89.6737 146.777 88.3665 148.285C87.0593 149.793 86.0669 151.547 85.4477 153.444C84.8285 155.341 84.5951 157.342 84.7611 159.331Z" fill="#FFBE9D"/>
<path d="M107.493 185.392C103.766 185.468 100.101 184.431 96.9658 182.414C96.9658 182.414 99.4198 188.23 107.518 187.502L107.493 185.392Z" fill="#EB996E"/>
<path d="M112.581 162.21C112.586 162.511 112.471 162.802 112.263 163.019C112.055 163.236 111.77 163.363 111.469 163.372C111.322 163.385 111.174 163.368 111.034 163.323C110.893 163.277 110.764 163.204 110.653 163.107C110.542 163.009 110.452 162.891 110.388 162.758C110.325 162.625 110.289 162.48 110.283 162.333C110.28 162.032 110.395 161.743 110.603 161.526C110.811 161.309 111.095 161.182 111.395 161.171C111.542 161.16 111.689 161.178 111.828 161.225C111.967 161.271 112.096 161.345 112.206 161.442C112.317 161.538 112.407 161.656 112.471 161.788C112.536 161.92 112.573 162.063 112.581 162.21Z" fill="#263238"/>
<path d="M112.835 160.917C112.688 161.064 111.821 160.418 110.577 160.418C109.334 160.418 108.426 161.048 108.287 160.893C108.148 160.737 108.369 160.557 108.769 160.263C109.305 159.892 109.942 159.695 110.594 159.698C111.239 159.7 111.868 159.903 112.393 160.279C112.778 160.574 112.884 160.844 112.835 160.917Z" fill="#263238"/>
<path d="M100.426 162.504C100.428 162.805 100.313 163.094 100.106 163.311C99.8978 163.528 99.6136 163.655 99.3134 163.666C99.1668 163.678 99.0192 163.661 98.8795 163.615C98.7397 163.569 98.6106 163.495 98.4999 163.398C98.3893 163.301 98.2992 163.183 98.2352 163.05C98.1712 162.918 98.1345 162.774 98.1273 162.627C98.1229 162.327 98.236 162.038 98.4424 161.821C98.6489 161.604 98.9322 161.476 99.2316 161.465C99.3789 161.452 99.5274 161.469 99.6681 161.514C99.8088 161.56 99.9389 161.633 100.05 161.73C100.162 161.827 100.253 161.946 100.317 162.079C100.382 162.212 100.419 162.357 100.426 162.504Z" fill="#263238"/>
<path d="M100.614 161.147C100.475 161.294 99.5997 160.648 98.3563 160.656C97.1129 160.664 96.205 161.278 96.0741 161.122C95.9432 160.967 96.1477 160.787 96.5485 160.5C97.0838 160.122 97.7256 159.925 98.3808 159.936C99.0252 159.93 99.654 160.134 100.172 160.517C100.614 160.803 100.704 161.081 100.614 161.147Z" fill="#263238"/>
<path d="M105.137 170.349C105.791 170.147 106.467 170.027 107.15 169.989C107.469 169.989 107.771 169.891 107.82 169.678C107.846 169.35 107.772 169.023 107.608 168.737L106.675 166.324C105.375 162.889 104.434 160.059 104.573 160.009C104.712 159.96 105.874 162.701 107.174 166.136C107.493 166.954 107.788 167.772 108.074 168.59C108.275 168.972 108.333 169.413 108.238 169.834C108.191 169.944 108.121 170.044 108.032 170.124C107.943 170.205 107.837 170.265 107.722 170.3C107.546 170.345 107.365 170.37 107.182 170.373C106.502 170.453 105.815 170.445 105.137 170.349Z" fill="#263238"/>
<path d="M101.481 171.207C101.685 171.207 101.685 172.549 102.839 173.498C103.992 174.446 105.432 174.316 105.44 174.496C105.448 174.675 105.121 174.757 104.516 174.774C103.727 174.787 102.959 174.52 102.348 174.021C101.762 173.54 101.384 172.852 101.293 172.099C101.244 171.534 101.432 171.199 101.481 171.207Z" fill="#263238"/>
<path d="M100.949 156.28C100.827 156.615 99.5915 156.459 98.1355 156.631C96.6794 156.803 95.5015 157.204 95.3052 156.901C95.2234 156.762 95.4279 156.443 95.9023 156.083C96.5313 155.674 97.2495 155.421 97.9964 155.347C98.7429 155.258 99.5 155.347 100.205 155.609C100.737 155.854 101.007 156.124 100.949 156.28Z" fill="#263238"/>
<path d="M112.377 157.318C112.156 157.605 111.305 157.318 110.274 157.318C109.244 157.318 108.377 157.515 108.172 157.212C108.09 157.073 108.221 156.787 108.606 156.525C109.116 156.202 109.712 156.039 110.315 156.058C110.919 156.077 111.503 156.277 111.992 156.631C112.352 156.893 112.475 157.188 112.377 157.318Z" fill="#263238"/>
<path d="M93.5382 150.513H93.4891C92.2081 151.524 91.3624 152.988 91.1251 154.603V154.766C90.8061 157.065 90.8633 159.412 90.528 161.711C90.3049 164.045 89.3055 166.237 87.6895 167.936C86.986 168.59 85.7508 169.04 85.1782 168.271C84.984 167.954 84.8846 167.588 84.8919 167.216C84.4584 161.654 82.9369 156.721 82.9451 150.905C82.9433 150.126 83.1271 149.357 83.4813 148.663C83.8355 147.969 84.3499 147.369 84.9819 146.913C86.2007 146.038 87.6895 145.13 89.0719 145.776C90.4543 146.423 92.1803 148.95 93.2355 150.022" fill="#263238"/>
<path d="M87.526 162.987C87.3951 162.922 81.9799 161.351 82.1517 166.865C82.3235 172.378 87.8777 171.069 87.8777 170.914C87.8777 170.758 87.526 162.987 87.526 162.987Z" fill="#FFBE9D"/>
<path d="M86.0534 168.876C86.0534 168.876 85.9553 168.942 85.7917 169.023C85.6817 169.077 85.5621 169.108 85.4399 169.115C85.3178 169.122 85.1954 169.105 85.08 169.064C84.7153 168.85 84.4145 168.542 84.2089 168.172C84.0032 167.803 83.9001 167.385 83.9103 166.962C83.8802 166.488 83.9557 166.013 84.1311 165.571C84.1785 165.397 84.2672 165.237 84.3897 165.105C84.5121 164.972 84.6648 164.871 84.8346 164.811C84.9437 164.781 85.0599 164.788 85.1639 164.833C85.268 164.878 85.3538 164.956 85.4072 165.056C85.489 165.211 85.4563 165.326 85.489 165.334C85.5217 165.342 85.6035 165.236 85.5463 165.007C85.5142 164.871 85.4325 164.751 85.3172 164.672C85.2419 164.615 85.1558 164.576 85.0642 164.554C84.9727 164.533 84.8778 164.531 84.7855 164.549C84.5603 164.6 84.3519 164.709 84.1801 164.863C84.0083 165.018 83.8788 165.214 83.8039 165.432C83.5831 165.919 83.4875 166.453 83.5258 166.987C83.5078 167.479 83.6386 167.966 83.9013 168.383C84.1639 168.801 84.5462 169.129 84.9982 169.326C85.1481 169.365 85.3051 169.37 85.4569 169.339C85.6087 169.307 85.7513 169.241 85.8735 169.146C86.0452 169.007 86.0698 168.884 86.0534 168.876Z" fill="#EB996E"/>
<path d="M88.843 146.643C87.4769 144.434 91.207 141.261 93.9309 140.402C96.6549 139.543 100.246 140.876 102.929 141.776C104.639 142.34 106.34 143.134 108.148 143.06C109.352 142.937 110.532 142.636 111.649 142.169C112.763 141.694 113.963 141.455 115.174 141.465C115.782 141.481 116.373 141.661 116.886 141.986C117.399 142.312 117.814 142.771 118.086 143.314C118.201 143.589 118.256 143.885 118.246 144.183C118.237 144.481 118.163 144.774 118.03 145.04C117.898 145.307 117.709 145.543 117.477 145.73C117.246 145.918 116.976 146.053 116.688 146.128C117.072 145.916 117.502 145.8 117.942 145.791C118.381 145.782 118.815 145.879 119.208 146.075C119.602 146.27 119.941 146.558 120.199 146.914C120.456 147.27 120.624 147.682 120.687 148.117C120.749 148.552 120.706 148.995 120.56 149.409C120.414 149.823 120.17 150.196 119.848 150.495C119.527 150.794 119.137 151.01 118.714 151.126C118.29 151.242 117.845 151.253 117.416 151.158C118.234 150.561 119.403 151.543 119.305 152.525C119.196 153.006 118.965 153.452 118.634 153.819C118.304 154.186 117.884 154.461 117.416 154.619C115.109 155.625 112.426 155.306 110.054 154.504C107.681 153.702 105.457 152.451 103.093 151.592C100.729 150.733 96.7776 149.179 94.4054 150.021C92.6548 150.635 91.4442 152.737 90.4544 152.271C89.993 152.025 89.5948 151.675 89.2911 151.249C88.9874 150.824 88.7864 150.333 88.7039 149.817C88.5705 148.768 88.6092 147.704 88.8184 146.668" fill="#263238"/>
<path d="M117.391 145.981C117.342 145.981 117.105 146.39 116.508 147.028C115.663 147.929 114.61 148.609 113.44 149.007C111.724 149.628 109.833 149.552 108.172 148.794C106.299 147.976 104.688 146.267 102.839 144.704C101.124 143.099 98.9562 142.059 96.6302 141.727C95.67 141.611 94.6959 141.714 93.7818 142.03C92.8677 142.347 92.0375 142.867 91.3541 143.551C90.9141 144.031 90.5762 144.595 90.361 145.21C90.1459 145.824 90.058 146.476 90.1026 147.126C90.1344 147.473 90.2142 147.815 90.3398 148.14C90.3811 148.256 90.4419 148.364 90.5198 148.459C90.4171 148.015 90.3488 147.564 90.3153 147.109C90.3132 145.889 90.7855 144.716 91.6323 143.837C92.281 143.224 93.0578 142.763 93.9067 142.487C94.7555 142.211 95.6551 142.128 96.5403 142.242C98.7547 142.594 100.812 143.602 102.446 145.138C104.262 146.692 105.915 148.41 107.927 149.293C109.409 149.923 111.054 150.061 112.62 149.687C114.187 149.313 115.592 148.447 116.63 147.216C116.852 146.948 117.044 146.658 117.203 146.349C117.358 146.103 117.407 145.989 117.391 145.981Z" fill="#455A64"/>
<path d="M86.0782 162.782C86.0782 162.782 86.3236 162.635 86.5281 162.193C86.804 161.564 86.9003 160.87 86.8062 160.189C86.6835 158.414 85.1047 156.5 84.9084 154.046C84.7725 152.918 84.9867 151.776 85.5219 150.774C85.9913 149.972 86.7133 149.348 87.5751 148.999C88.1567 148.758 88.7912 148.673 89.4156 148.754C89.8573 148.819 90.0945 148.925 90.1191 148.876C90.1436 148.827 89.9228 148.688 89.4565 148.541C88.7885 148.37 88.0843 148.404 87.436 148.639C86.4585 148.974 85.6282 149.639 85.0884 150.521C84.46 151.609 84.207 152.874 84.3685 154.12C84.5067 155.337 84.8672 156.518 85.4319 157.604C85.8836 158.443 86.2167 159.341 86.4217 160.271C86.576 161.123 86.4557 162.003 86.0782 162.782Z" fill="#455A64"/>
<path d="M194.725 313.114L197.408 358.611H201.105L202.758 313.114H194.725Z" fill="#263238"/>
<path d="M127.812 335.127L130.487 380.624H134.185L135.837 335.127H127.812Z" fill="#263238"/>
<path d="M51.2393 320.19L53.9223 358.612H57.6197L59.272 320.19H51.2393Z" fill="#263238"/>
<path d="M87.2069 191.216C87.2069 191.216 73.3009 199.871 71.5259 206.546C71.5259 206.546 68.8183 211.953 71.5259 221.147C74.2335 230.341 112.581 271.266 112.581 271.266L145.301 259.069L130.872 233.45C130.872 233.45 126.88 195.674 125.465 193.564C120.884 186.709 104.279 189.474 104.279 189.474L87.2069 191.216Z" fill="#455A64"/>
<path d="M122.291 190.807C123.044 191.265 152.876 202.659 152.876 202.659L196.271 195.674L201.923 207.698L166.185 221.94C160.863 224.073 155.022 224.552 149.424 223.314L129.08 218.807L122.291 190.807Z" fill="#455A64"/>
<path d="M130.88 233.949C130.81 233.535 130.769 233.117 130.757 232.697C130.716 231.879 130.618 230.718 130.487 229.278C130.226 226.398 129.669 222.448 128.941 218.088C128.213 213.728 127.698 209.744 127.51 206.848C127.412 205.4 127.354 204.231 127.354 203.421C127.319 203.002 127.319 202.58 127.354 202.161C127.437 202.573 127.48 202.992 127.485 203.413C127.534 204.231 127.641 205.384 127.772 206.824C128.041 209.703 128.59 213.654 129.326 218.022C130.062 222.39 130.569 226.358 130.757 229.253C130.847 230.701 130.896 231.879 130.888 232.689C130.929 233.108 130.926 233.53 130.88 233.949Z" fill="#263238"/>
<path d="M130.88 233.948C130.018 234.256 129.138 234.512 128.246 234.717C126.61 235.175 124.377 235.871 121.964 236.795C119.551 237.719 117.432 238.717 115.911 239.47C115.117 239.92 114.298 240.321 113.457 240.672C113.632 240.496 113.833 240.347 114.054 240.231C114.454 239.969 115.043 239.617 115.788 239.208C117.732 238.133 119.749 237.196 121.825 236.402C123.896 235.601 126.019 234.942 128.181 234.431C128.999 234.235 129.686 234.096 130.16 234.022C130.395 233.961 130.638 233.936 130.88 233.948Z" fill="#263238"/>
<path d="M131.469 234.84C129.405 235.79 127.409 236.883 125.498 238.112C123.669 239.46 121.939 240.936 120.32 242.529C120.657 241.944 121.075 241.409 121.563 240.942C122.673 239.75 123.91 238.683 125.252 237.76C126.594 236.84 128.031 236.066 129.538 235.453C130.149 235.156 130.799 234.95 131.469 234.84Z" fill="#263238"/>
<path d="M86.7489 193.866C86.6507 192.033 86.5444 190.201 86.4462 188.361C86.3795 188.018 86.45 187.662 86.6426 187.371C87.0188 186.945 87.706 187.142 88.2295 187.371C93.0059 189.203 98.2916 189.203 103.068 187.371C104.14 186.886 105.255 186.5 106.397 186.217C106.971 186.077 107.569 186.066 108.147 186.185C108.726 186.304 109.271 186.55 109.743 186.905C110.945 187.943 111.019 188.729 111.043 190.316C111.093 193.105 111.043 197.244 109.048 199.199C107.698 200.524 105.776 201.007 103.894 201.424C99.6733 202.398 95.297 203.371 91.0598 202.496C89.1492 202.208 87.4065 201.241 86.1518 199.772C84.5894 197.686 86.1518 195.191 86.6916 192.647" fill="#455A64"/>
<path d="M111.052 188.664C111.101 188.845 111.123 189.033 111.117 189.22C111.117 189.646 111.117 190.169 111.166 190.807C111.102 191.585 110.873 192.341 110.495 193.024C110.007 193.904 109.361 194.686 108.589 195.331C107.697 196.102 106.7 196.744 105.628 197.237C104.429 197.756 103.171 198.127 101.882 198.341C98.4259 198.944 94.8837 198.841 91.4687 198.038C90.4281 197.809 89.4365 197.396 88.5402 196.82C88.2975 196.659 88.0798 196.463 87.894 196.239C87.7795 196.075 87.7222 195.985 87.7386 195.977C88.0108 196.241 88.3096 196.477 88.6302 196.68C89.5384 197.187 90.5214 197.546 91.5423 197.744C94.9226 198.448 98.4053 198.509 101.808 197.924C103.064 197.713 104.291 197.356 105.465 196.86C106.502 196.386 107.473 195.778 108.352 195.053C109.733 194.016 110.662 192.486 110.945 190.783C110.945 190.145 110.986 189.621 110.994 189.196C110.996 189.017 111.015 188.839 111.052 188.664Z" fill="#263238"/>
<path d="M90.0453 197.138C89.6863 196.823 89.4062 196.428 89.2273 195.985C88.7346 194.961 88.4562 193.848 88.4093 192.713C88.3515 191.577 88.524 190.442 88.9165 189.375C89.0403 188.923 89.2671 188.506 89.5791 188.156C89.0116 189.601 88.7561 191.15 88.8294 192.701C88.9028 194.251 89.3032 195.769 90.0044 197.154L90.0453 197.138Z" fill="#263238"/>
<path d="M95.706 198.062C95.3577 197.728 95.0796 197.327 94.888 196.884C93.7751 194.772 93.5371 192.307 94.2254 190.021C94.3391 189.545 94.5478 189.097 94.8389 188.704C94.4075 190.258 94.228 191.871 94.3072 193.481C94.5228 195.074 94.9951 196.621 95.706 198.062Z" fill="#263238"/>
<path d="M101.367 197.473C99.8217 194.794 99.19 191.684 99.567 188.614C99.6979 188.614 99.657 190.667 100.164 193.105C100.671 195.543 101.489 197.424 101.367 197.473Z" fill="#263238"/>
<path d="M107.395 195.584C107.324 195.124 107.286 194.659 107.281 194.194C107.054 191.977 105.992 189.93 104.311 188.468C103.673 187.912 103.215 187.65 103.248 187.576C103.71 187.695 104.138 187.919 104.5 188.231C105.425 188.927 106.183 189.822 106.717 190.849C107.25 191.877 107.547 193.012 107.583 194.169C107.628 194.649 107.564 195.133 107.395 195.584Z" fill="#263238"/>
<path d="M80.6712 198.586C80.4222 198.593 80.1861 198.699 80.0139 198.879C79.8417 199.059 79.7473 199.3 79.7511 199.549C79.7548 199.798 79.8565 200.036 80.034 200.21C80.2115 200.385 80.4507 200.483 80.6999 200.483C80.949 200.483 81.1882 200.385 81.3657 200.21C81.5433 200.036 81.6449 199.798 81.6486 199.549C81.6524 199.3 81.558 199.059 81.3858 198.879C81.2137 198.699 80.9776 198.593 80.7285 198.586" fill="#E0E0E0"/>
<path d="M86.7897 232.983C86.6035 233.127 86.4814 233.338 86.4495 233.572C86.4176 233.805 86.4785 234.042 86.6191 234.231C86.7598 234.42 86.969 234.546 87.2017 234.583C87.4345 234.619 87.6723 234.563 87.864 234.426C88.0557 234.289 88.186 234.082 88.227 233.85C88.268 233.618 88.2164 233.38 88.0833 233.185C87.9501 232.991 87.746 232.856 87.5149 232.811C87.2837 232.765 87.0439 232.812 86.847 232.942" fill="#E0E0E0"/>
<path d="M100.728 206.848C100.544 206.991 100.423 207.201 100.391 207.432C100.36 207.664 100.42 207.898 100.56 208.085C100.699 208.272 100.906 208.398 101.137 208.434C101.368 208.47 101.603 208.414 101.793 208.278C101.983 208.143 102.112 207.938 102.153 207.708C102.194 207.478 102.142 207.242 102.011 207.049C101.879 206.856 101.676 206.723 101.447 206.678C101.218 206.633 100.981 206.679 100.786 206.807" fill="#E0E0E0"/>
<path d="M123.158 208.517C122.909 208.524 122.673 208.629 122.501 208.809C122.329 208.99 122.234 209.23 122.238 209.479C122.242 209.729 122.343 209.966 122.521 210.141C122.698 210.316 122.937 210.414 123.187 210.414C123.436 210.414 123.675 210.316 123.853 210.141C124.03 209.966 124.132 209.729 124.135 209.479C124.139 209.23 124.045 208.99 123.873 208.809C123.7 208.629 123.464 208.524 123.215 208.517" fill="#E0E0E0"/>
<path d="M121.767 194.888C121.568 195.025 121.43 195.234 121.383 195.471C121.336 195.709 121.384 195.955 121.516 196.157C121.649 196.359 121.855 196.502 122.091 196.554C122.327 196.606 122.574 196.563 122.779 196.435C122.985 196.307 123.131 196.103 123.188 195.868C123.245 195.633 123.207 195.385 123.083 195.177C122.96 194.97 122.759 194.819 122.526 194.757C122.292 194.695 122.043 194.728 121.833 194.847" fill="#E0E0E0"/>
<path d="M134.823 200.664C134.574 200.672 134.337 200.777 134.165 200.957C133.993 201.137 133.899 201.378 133.902 201.627C133.906 201.876 134.008 202.114 134.185 202.289C134.363 202.463 134.602 202.561 134.851 202.561C135.1 202.561 135.34 202.463 135.517 202.289C135.695 202.114 135.796 201.876 135.8 201.627C135.804 201.378 135.709 201.137 135.537 200.957C135.365 200.777 135.129 200.672 134.88 200.664" fill="#E0E0E0"/>
<path d="M156.966 217.285C156.78 217.43 156.658 217.641 156.626 217.875C156.594 218.108 156.655 218.345 156.795 218.534C156.936 218.723 157.145 218.849 157.378 218.885C157.611 218.922 157.849 218.866 158.04 218.729C158.232 218.592 158.362 218.385 158.403 218.153C158.444 217.921 158.393 217.682 158.26 217.488C158.126 217.294 157.922 217.159 157.691 217.114C157.46 217.068 157.22 217.115 157.023 217.244" fill="#E0E0E0"/>
<path d="M161.555 205.711C161.321 205.718 161.099 205.818 160.938 205.987C160.777 206.156 160.688 206.382 160.692 206.616C160.696 206.85 160.791 207.073 160.958 207.238C161.125 207.402 161.35 207.494 161.584 207.494C161.818 207.494 162.042 207.402 162.209 207.238C162.376 207.073 162.471 206.85 162.475 206.616C162.479 206.382 162.39 206.156 162.229 205.987C162.068 205.818 161.846 205.718 161.612 205.711" fill="#E0E0E0"/>
<path d="M181.015 203.683C180.779 203.69 180.556 203.79 180.393 203.961C180.23 204.132 180.14 204.36 180.144 204.596C180.148 204.832 180.244 205.058 180.413 205.223C180.581 205.389 180.808 205.482 181.044 205.482C181.28 205.482 181.507 205.389 181.675 205.223C181.843 205.058 181.94 204.832 181.944 204.596C181.947 204.36 181.858 204.132 181.695 203.961C181.532 203.79 181.309 203.69 181.072 203.683" fill="#E0E0E0"/>
<path d="M193.473 205.433C193.237 205.44 193.014 205.54 192.851 205.711C192.688 205.882 192.598 206.11 192.602 206.346C192.606 206.582 192.702 206.808 192.871 206.973C193.039 207.139 193.266 207.232 193.502 207.232C193.738 207.232 193.965 207.139 194.133 206.973C194.301 206.808 194.398 206.582 194.402 206.346C194.405 206.11 194.316 205.882 194.153 205.711C193.99 205.54 193.767 205.44 193.53 205.433" fill="#E0E0E0"/>
<path d="M172.336 213.899C172.152 214.042 172.031 214.252 171.999 214.483C171.968 214.714 172.028 214.949 172.167 215.136C172.307 215.323 172.514 215.448 172.745 215.484C172.975 215.521 173.211 215.465 173.401 215.329C173.591 215.193 173.72 214.989 173.761 214.759C173.801 214.529 173.75 214.292 173.618 214.1C173.486 213.907 173.284 213.774 173.055 213.729C172.826 213.684 172.589 213.73 172.393 213.858" fill="#E0E0E0"/>
<path d="M145.907 210.226C145.72 210.37 145.598 210.582 145.566 210.815C145.534 211.049 145.595 211.285 145.736 211.474C145.877 211.663 146.086 211.789 146.319 211.826C146.551 211.862 146.789 211.806 146.981 211.669C147.173 211.532 147.303 211.325 147.344 211.093C147.385 210.861 147.333 210.623 147.2 210.428C147.067 210.234 146.863 210.1 146.632 210.054C146.401 210.009 146.161 210.055 145.964 210.185" fill="#E0E0E0"/>
<path d="M133.931 213.008C133.697 213.015 133.476 213.114 133.314 213.284C133.153 213.453 133.064 213.679 133.068 213.913C133.072 214.147 133.168 214.37 133.334 214.535C133.501 214.699 133.726 214.791 133.96 214.791C134.194 214.791 134.418 214.699 134.585 214.535C134.752 214.37 134.847 214.147 134.851 213.913C134.855 213.679 134.767 213.453 134.605 213.284C134.444 213.114 134.222 213.015 133.988 213.008" fill="#E0E0E0"/>
<path d="M123.518 225.547C123.334 225.691 123.213 225.9 123.181 226.132C123.149 226.363 123.21 226.597 123.349 226.784C123.489 226.972 123.696 227.097 123.927 227.133C124.157 227.169 124.393 227.113 124.583 226.978C124.773 226.842 124.902 226.637 124.942 226.407C124.983 226.177 124.932 225.941 124.8 225.748C124.668 225.556 124.466 225.422 124.237 225.377C124.008 225.332 123.77 225.378 123.575 225.507" fill="#E0E0E0"/>
<path d="M116.049 220.124C115.865 220.267 115.744 220.476 115.713 220.708C115.681 220.939 115.741 221.173 115.881 221.361C116.02 221.548 116.227 221.673 116.458 221.709C116.689 221.745 116.924 221.689 117.114 221.554C117.304 221.418 117.433 221.213 117.474 220.983C117.515 220.754 117.464 220.517 117.332 220.324C117.2 220.132 116.998 219.999 116.769 219.953C116.54 219.908 116.302 219.955 116.107 220.083" fill="#E0E0E0"/>
<path d="M113.26 234.865C113.076 235.008 112.955 235.218 112.923 235.449C112.892 235.68 112.952 235.915 113.091 236.102C113.231 236.289 113.438 236.414 113.669 236.45C113.899 236.486 114.135 236.431 114.325 236.295C114.515 236.159 114.644 235.954 114.685 235.725C114.725 235.495 114.674 235.258 114.542 235.066C114.41 234.873 114.208 234.74 113.979 234.695C113.75 234.649 113.513 234.696 113.317 234.824" fill="#E0E0E0"/>
<path d="M109.988 198.635C109.804 198.778 109.683 198.988 109.651 199.219C109.62 199.451 109.68 199.685 109.82 199.872C109.959 200.06 110.166 200.185 110.397 200.221C110.627 200.257 110.863 200.201 111.053 200.065C111.243 199.93 111.372 199.725 111.413 199.495C111.453 199.265 111.402 199.029 111.27 198.836C111.138 198.643 110.936 198.51 110.707 198.465C110.478 198.42 110.241 198.466 110.045 198.594" fill="#E0E0E0"/>
<path d="M100.819 232.091C100.634 232.234 100.513 232.444 100.482 232.675C100.45 232.907 100.51 233.141 100.65 233.328C100.789 233.516 100.997 233.641 101.227 233.677C101.458 233.713 101.693 233.657 101.883 233.521C102.073 233.386 102.202 233.181 102.243 232.951C102.284 232.721 102.233 232.485 102.101 232.292C101.969 232.1 101.767 231.966 101.538 231.921C101.309 231.876 101.071 231.922 100.876 232.05" fill="#E0E0E0"/>
<path d="M94.8307 221.891C94.5816 221.898 94.3455 222.003 94.1733 222.183C94.0011 222.364 93.9067 222.604 93.9105 222.853C93.9143 223.103 94.0159 223.34 94.1934 223.515C94.3709 223.69 94.6101 223.788 94.8593 223.788C95.1085 223.788 95.3476 223.69 95.5252 223.515C95.7027 223.34 95.8043 223.103 95.8081 222.853C95.8118 222.604 95.7174 222.364 95.5453 222.183C95.3731 222.003 95.137 221.898 94.8879 221.891" fill="#E0E0E0"/>
<path d="M122.029 250.562C122.063 250.618 122.088 250.678 122.103 250.742C122.103 250.889 122.193 251.069 122.258 251.282C122.389 251.756 122.577 252.46 122.774 253.376C123.014 254.49 123.183 255.619 123.281 256.754C123.418 258.268 123.34 259.794 123.052 261.286C122.885 262.159 122.61 263.008 122.234 263.814C121.848 264.706 121.292 265.514 120.598 266.194C119.858 266.96 118.886 267.46 117.833 267.617C116.698 267.71 115.571 267.365 114.684 266.652C113.77 265.936 113.003 265.05 112.426 264.043C111.813 263.002 111.299 261.906 110.888 260.771C110.076 258.409 109.511 255.969 109.203 253.49C108.017 244.848 107.356 236.143 107.223 227.421C107.174 224.075 107.223 221.368 107.223 219.494C107.223 218.562 107.281 217.858 107.305 217.343C107.305 217.122 107.305 216.934 107.305 216.787C107.3 216.724 107.3 216.661 107.305 216.599C107.315 216.661 107.315 216.724 107.305 216.787C107.305 216.942 107.305 217.122 107.305 217.351C107.305 217.875 107.305 218.595 107.305 219.503C107.305 221.368 107.305 224.075 107.395 227.413C107.622 236.115 108.324 244.799 109.498 253.425C109.793 255.875 110.341 258.287 111.134 260.623C111.534 261.722 112.035 262.782 112.63 263.789C113.177 264.754 113.905 265.603 114.774 266.292C115.186 266.646 115.667 266.913 116.185 267.076C116.704 267.239 117.251 267.295 117.792 267.241C118.766 267.102 119.666 266.644 120.352 265.94C121.02 265.294 121.556 264.525 121.931 263.675C122.302 262.893 122.577 262.069 122.749 261.221C123.051 259.758 123.148 258.26 123.035 256.771C122.957 255.642 122.812 254.52 122.602 253.409C122.43 252.492 122.275 251.773 122.168 251.306C122.119 251.086 122.087 250.906 122.054 250.758C122.021 250.611 122.029 250.57 122.029 250.562Z" fill="#E0E0E0"/>
<path d="M256.615 339.225L286.365 348.82L304.01 314.112C303.78 313.835 303.496 313.608 303.175 313.443C302.855 313.279 302.504 313.181 302.145 313.156C301.786 313.131 301.425 313.179 301.085 313.297C300.745 313.415 300.432 313.6 300.165 313.842L282.701 329.605L265.441 324.403L256.615 339.225Z" fill="#E0E0E0"/>
<path d="M193.866 277.793L200.075 302.055L236.803 301.024C237.073 301.018 237.338 300.952 237.58 300.832C237.822 300.712 238.034 300.539 238.202 300.328C238.37 300.116 238.489 299.87 238.551 299.608C238.613 299.345 238.617 299.072 238.562 298.807C238.497 298.496 238.354 298.206 238.144 297.967C237.935 297.727 237.667 297.546 237.367 297.441L215.199 289.637L211.543 271.993L193.866 277.793Z" fill="#E0E0E0"/>
<path d="M145.26 259.069C145.26 259.069 165.228 227.773 173.719 216.173C180.712 206.619 200.713 206.407 203.641 221.54C205.85 232.82 219.911 282.407 219.911 282.407L192.917 285.589L183.854 253.515C183.854 253.515 167.657 287.642 162.136 291.511C156.614 295.38 127.608 265.646 127.608 265.646L145.26 259.069Z" fill="#263238"/>
<path d="M272.238 323.552L204.549 292.541L131.698 264.148L109.612 271.265C109.612 271.265 120.508 298.169 123.706 302.055C126.904 305.94 152.107 308.599 152.107 308.599L196.115 317.597L264.165 344.591L272.238 323.552Z" fill="#263238"/>
<path d="M211.96 295.936C211.733 295.888 211.511 295.816 211.298 295.723L209.424 295.011L202.561 292.353L179.96 283.51L157.31 274.758L150.43 272.148L148.557 271.429C148.338 271.35 148.125 271.257 147.919 271.15C148.149 271.192 148.374 271.258 148.59 271.347L150.487 271.993C152.123 272.557 154.496 273.408 157.416 274.447C163.248 276.582 171.273 279.633 180.107 283.085C188.942 286.537 196.917 289.711 202.684 292.042L209.498 294.823L211.338 295.641C211.552 295.725 211.76 295.823 211.96 295.936Z" fill="#455A64"/>
<path d="M186.823 264.149C186.642 263.726 186.5 263.288 186.398 262.84C186.16 262.022 185.833 260.754 185.449 259.224C184.631 256.165 183.625 251.928 182.512 247.24C181.4 242.553 180.418 238.3 179.739 235.216C179.404 233.678 179.142 232.426 178.97 231.559C178.854 231.113 178.788 230.655 178.774 230.193C178.774 230.193 178.913 230.66 179.134 231.519L180.034 235.15C180.794 238.283 181.809 242.512 182.929 247.142C184.05 251.772 185.007 256.009 185.743 259.151C186.07 260.639 186.349 261.866 186.561 262.799C186.678 263.242 186.766 263.693 186.823 264.149Z" fill="#455A64"/>
<path d="M182.774 245.826C182.183 245.616 181.631 245.313 181.138 244.926C178.687 243.248 176.619 241.071 175.068 238.537C174.713 238.037 174.438 237.485 174.25 236.901C175.427 238.599 176.706 240.224 178.078 241.768C179.562 243.213 181.13 244.567 182.774 245.826Z" fill="#455A64"/>
<path d="M85.0718 166.496C84.5923 166.55 84.1315 166.713 83.7246 166.973C83.3177 167.232 82.9755 167.581 82.7241 167.993C82.477 168.425 82.3277 168.906 82.2867 169.402C82.2457 169.898 82.3141 170.397 82.4869 170.864C82.6832 171.388 83.1413 171.919 83.6976 171.838C83.8562 171.805 84.005 171.736 84.1315 171.635C84.2581 171.534 84.3589 171.404 84.4256 171.257C84.5534 170.957 84.6202 170.634 84.6219 170.308C84.6124 170.113 84.6608 169.919 84.761 169.752C84.8745 169.629 85.0106 169.529 85.1618 169.457C85.4169 169.297 85.6262 169.073 85.7695 168.808C85.9128 168.543 85.9852 168.245 85.9798 167.944C85.968 167.645 85.8788 167.355 85.7211 167.101C85.5634 166.847 85.3425 166.639 85.08 166.496" fill="#E0E0E0"/>
<path d="M111.886 183.764C111.915 183.842 111.939 183.921 111.96 184.001C112.009 184.181 112.066 184.402 112.148 184.688C112.311 185.326 112.532 186.226 112.827 187.355L113.865 191.584C114.266 193.22 114.749 195.11 115.166 197.212C115.661 199.503 115.878 201.846 115.812 204.189C115.76 206.912 114.99 209.574 113.579 211.903C112.773 213.144 111.7 214.189 110.438 214.963C109.104 215.74 107.621 216.231 106.086 216.402C104.506 216.56 102.911 216.471 101.358 216.14C99.7672 215.795 98.2275 215.245 96.7775 214.504C93.87 213.094 91.4803 210.805 89.9472 207.96C88.6475 205.282 87.7069 202.443 87.1496 199.519C85.9308 193.997 85.0392 188.983 84.3929 184.754C83.7467 180.525 83.3295 177.089 83.076 174.717C82.9533 173.531 82.8633 172.606 82.8142 171.977C82.8142 171.682 82.8142 171.445 82.7651 171.265C82.7528 171.184 82.7528 171.101 82.7651 171.02C82.7913 171.096 82.8078 171.176 82.8142 171.257C82.8142 171.445 82.8715 171.674 82.9124 171.968C82.9942 172.623 83.1087 173.539 83.2477 174.701C83.5586 177.065 84.0085 180.492 84.6956 184.705C85.3827 188.917 86.3316 193.924 87.5422 199.429C88.0972 202.315 89.0324 205.115 90.3234 207.756C91.8152 210.537 94.1449 212.778 96.982 214.161C98.3966 214.897 99.9006 215.447 101.456 215.797C102.963 216.124 104.511 216.212 106.045 216.059C107.521 215.898 108.947 215.433 110.234 214.693C111.447 213.95 112.481 212.947 113.26 211.756C114.642 209.49 115.403 206.9 115.469 204.247C115.542 201.93 115.345 199.613 114.88 197.343C114.487 195.249 114.021 193.367 113.645 191.715L112.671 187.47C112.418 186.324 112.213 185.425 112.074 184.786C112.009 184.492 111.96 184.263 111.927 184.083C111.891 183.981 111.877 183.872 111.886 183.764Z" fill="#E0E0E0"/>
<path d="M128.557 340.173C129.236 322.128 130.07 301.237 125.285 283.846C122.675 274.382 118.945 264.672 111.428 258.488C101.284 250.144 85.2516 248.631 72.1636 249.49C71.2066 229.465 68.8917 211.199 61.8896 192.451C59.2802 185.449 56.1636 178.488 51.411 172.819C46.6584 167.15 40.3025 162.046 32.9487 161.637L50.1267 321.376L128.557 340.173Z" fill="#FF9A35"/>
<path d="M141.702 336.362C142.201 318.276 140.835 290.464 136.033 273.081C133.416 263.617 129.686 253.907 122.176 247.723C112.025 239.371 96.0004 237.858 82.9124 238.725C81.9635 218.701 79.6404 200.435 72.6465 181.686C70.0371 174.684 66.9205 167.731 62.1598 162.054C57.399 156.377 40.2864 162.054 32.9326 161.621L61.0882 310.66L128.532 340.214L141.702 336.362Z" fill="#FF9A35"/>
<g opacity="0.4">
<path opacity="0.4" d="M128.557 340.173C129.236 322.128 130.07 301.237 125.285 283.846C122.675 274.382 118.945 264.672 111.428 258.488C101.284 250.144 85.2516 248.631 72.1636 249.49C71.2066 229.465 68.8917 211.199 61.8896 192.451C59.2802 185.449 56.1636 178.488 51.411 172.819C46.6584 167.15 40.3025 162.046 32.9487 161.637L50.1267 321.376L128.557 340.173Z" fill="black"/>
</g>
<path d="M73.4398 202.66C73.4398 202.66 53.6769 223.928 49.2515 243.56C48.4443 247.154 48.7973 250.911 50.2597 254.291C51.7221 257.672 54.2187 260.502 57.3906 262.374C59.4441 263.595 61.7265 264.38 64.0962 264.681C66.466 264.982 68.8723 264.793 71.1657 264.125L108.303 253.335L107.485 240.018L71.4929 242.227L87.3948 221.024L93.7589 213.662L78.2169 198.12L73.4398 202.66Z" fill="#455A64"/>
<path d="M91.4524 258.227C91.5451 258.176 91.6441 258.137 91.7469 258.112L92.6385 257.826L96.0414 256.787L108.254 253.163L108.123 253.352C107.861 249.392 107.567 244.869 107.248 240.026L107.436 240.223C105.416 240.321 103.207 240.484 101.015 240.632L74.6506 242.423L66.6588 242.922L64.4829 243.037H63.9185H63.7222C63.7846 243.011 63.8511 242.997 63.9185 242.996L64.4829 242.938L66.6506 242.742L74.6343 242.104C81.3746 241.589 90.6916 240.893 100.982 240.19C103.207 240.043 105.334 239.879 107.477 239.789H107.649V239.994C107.943 244.836 108.221 249.36 108.467 253.319V253.466H108.328L96.0577 256.951L92.6303 257.891L91.7223 258.12C91.6372 258.167 91.5465 258.203 91.4524 258.227Z" fill="#263238"/>
<path d="M72.1311 242.628C70.6469 241.519 69.0514 240.568 67.3704 239.789C65.6305 239.149 63.8297 238.689 61.9961 238.415C62.5373 238.32 63.0909 238.32 63.6321 238.415C64.9677 238.559 66.2759 238.892 67.5176 239.405C68.7558 239.92 69.913 240.611 70.9532 241.458C71.4139 241.773 71.8131 242.169 72.1311 242.628Z" fill="#263238"/>
<path d="M78.7897 232.476C78.8595 232.342 78.9476 232.218 79.0514 232.108L79.8694 231.093C80.5647 230.218 81.5791 228.942 82.7652 227.331C84.1705 225.453 85.4652 223.494 86.6425 221.466C87.3375 220.28 87.9182 219.031 88.3767 217.736C88.8391 216.343 88.9953 214.867 88.8347 213.408C88.5274 210.566 87.2026 207.931 85.1047 205.989C83.367 204.434 81.2268 203.399 78.9287 203.003C77.3743 202.744 75.7878 202.744 74.2334 203.003C73.1373 203.192 72.5402 203.388 72.532 203.347C72.6619 203.27 72.8025 203.212 72.9492 203.175C73.3624 203.04 73.783 202.928 74.2089 202.84C75.7803 202.526 77.3948 202.493 78.9778 202.742C81.3507 203.11 83.568 204.152 85.3664 205.744C87.5596 207.734 88.9428 210.463 89.2519 213.408C89.4235 214.925 89.2616 216.46 88.7775 217.907C88.3029 219.227 87.703 220.498 86.986 221.703C85.7838 223.735 84.4532 225.689 83.0024 227.552C81.7836 229.147 80.7365 230.39 80.0003 231.241C79.6322 231.666 79.3377 231.985 79.1332 232.206C79.0285 232.308 78.9134 232.398 78.7897 232.476Z" fill="#263238"/>
<path d="M115.076 254.398C116.77 251.298 123.674 239.085 125.465 235.911C125.52 235.814 125.595 235.729 125.685 235.662C125.774 235.595 125.876 235.547 125.985 235.521C126.094 235.494 126.207 235.491 126.318 235.51C126.428 235.53 126.533 235.572 126.626 235.633L134.667 240.918C134.838 241.029 134.96 241.199 135.012 241.396C135.063 241.592 135.04 241.801 134.946 241.981L125.391 260.206C125.34 260.303 125.27 260.389 125.185 260.458C125.1 260.527 125.001 260.578 124.896 260.609C124.791 260.639 124.681 260.648 124.572 260.635C124.463 260.622 124.358 260.588 124.262 260.533L115.395 255.535C115.298 255.483 115.212 255.412 115.143 255.326C115.074 255.24 115.023 255.141 114.993 255.035C114.963 254.929 114.955 254.817 114.97 254.708C114.984 254.599 115.02 254.493 115.076 254.398Z" fill="#263238"/>
<path d="M69.7343 218.479C69.5005 218.487 69.2789 218.586 69.1175 218.756C68.9561 218.925 68.8677 219.151 68.8715 219.385C68.8752 219.619 68.9708 219.842 69.1376 220.006C69.3044 220.17 69.529 220.262 69.763 220.262C69.997 220.262 70.2216 220.17 70.3883 220.006C70.5551 219.842 70.6507 219.619 70.6545 219.385C70.6582 219.151 70.5699 218.925 70.4084 218.756C70.247 218.586 70.0255 218.487 69.7916 218.479" fill="#E0E0E0"/>
<path d="M57.2109 244.271C57.0264 244.414 56.9054 244.624 56.8739 244.855C56.8424 245.086 56.9028 245.321 57.0422 245.508C57.1816 245.695 57.3888 245.82 57.6194 245.856C57.8501 245.893 58.0856 245.837 58.2756 245.701C58.4655 245.565 58.5947 245.361 58.6353 245.131C58.676 244.901 58.6249 244.664 58.493 244.472C58.3611 244.279 58.1589 244.146 57.9299 244.101C57.7009 244.056 57.4633 244.102 57.2681 244.23" fill="#E0E0E0"/>
<path d="M81.3173 256.132C81.1329 256.275 81.0119 256.485 80.9803 256.716C80.9488 256.948 81.0092 257.182 81.1486 257.369C81.288 257.557 81.4953 257.682 81.7259 257.718C81.9565 257.754 82.1921 257.698 82.382 257.562C82.572 257.427 82.7011 257.222 82.7418 256.992C82.7824 256.762 82.7313 256.526 82.5994 256.333C82.4675 256.141 82.2653 256.007 82.0363 255.962C81.8073 255.917 81.5697 255.963 81.3746 256.092" fill="#E0E0E0"/>
<path d="M92.9819 246.284C92.7974 246.427 92.6764 246.637 92.6449 246.868C92.6134 247.099 92.6738 247.334 92.8132 247.521C92.9526 247.708 93.1598 247.833 93.3904 247.869C93.6211 247.905 93.8566 247.85 94.0466 247.714C94.2365 247.578 94.3657 247.373 94.4064 247.144C94.447 246.914 94.3959 246.677 94.264 246.484C94.1321 246.292 93.9299 246.159 93.7009 246.114C93.4719 246.068 93.2343 246.115 93.0391 246.243" fill="#E0E0E0"/>
<path d="M69.3991 233.948C69.2147 234.091 69.0937 234.301 69.0621 234.532C69.0306 234.763 69.091 234.998 69.2304 235.185C69.3698 235.372 69.5771 235.497 69.8077 235.533C70.0383 235.569 70.2739 235.514 70.4638 235.378C70.6538 235.242 70.7829 235.037 70.8236 234.808C70.8642 234.578 70.8131 234.341 70.6812 234.149C70.5493 233.956 70.3471 233.823 70.1181 233.778C69.8891 233.732 69.6515 233.779 69.4564 233.907" fill="#E0E0E0"/>
<path d="M83.5177 213.85C83.2686 213.857 83.0325 213.962 82.8603 214.142C82.6882 214.323 82.5938 214.563 82.5975 214.812C82.6013 215.062 82.7029 215.299 82.8804 215.474C83.0579 215.649 83.2971 215.747 83.5463 215.747C83.7955 215.747 84.0347 215.649 84.2122 215.474C84.3897 215.299 84.4913 215.062 84.4951 214.812C84.4988 214.563 84.4044 214.323 84.2323 214.142C84.0601 213.962 83.824 213.857 83.5749 213.85" fill="#E0E0E0"/>
<path d="M72.851 247.175C72.6666 247.318 72.5456 247.528 72.514 247.759C72.4825 247.991 72.5429 248.225 72.6823 248.412C72.8217 248.6 73.029 248.725 73.2596 248.761C73.4902 248.797 73.7258 248.741 73.9157 248.605C74.1057 248.47 74.2348 248.265 74.2755 248.035C74.3161 247.805 74.265 247.569 74.1331 247.376C74.0012 247.183 73.799 247.05 73.57 247.005C73.341 246.96 73.1034 247.006 72.9083 247.134" fill="#E0E0E0"/>
<path d="M56.7938 230.193C56.5447 230.201 56.3086 230.306 56.1364 230.486C55.9643 230.666 55.8699 230.907 55.8736 231.156C55.8774 231.405 55.979 231.643 56.1565 231.818C56.3341 231.993 56.5732 232.091 56.8224 232.091C57.0716 232.091 57.3108 231.993 57.4883 231.818C57.6658 231.643 57.7674 231.405 57.7712 231.156C57.7749 230.907 57.6806 230.666 57.5084 230.486C57.3362 230.306 57.1001 230.201 56.851 230.193" fill="#E0E0E0"/>
<path d="M61.996 259.658C61.8116 259.801 61.6906 260.011 61.6591 260.242C61.6275 260.473 61.6879 260.708 61.8273 260.895C61.9667 261.082 62.174 261.207 62.4046 261.243C62.6352 261.279 62.8708 261.224 63.0607 261.088C63.2507 260.952 63.3799 260.747 63.4205 260.518C63.4611 260.288 63.41 260.051 63.2781 259.858C63.1462 259.666 62.9441 259.533 62.7151 259.488C62.486 259.442 62.2484 259.489 62.0533 259.617" fill="#E0E0E0"/>
<path d="M128.941 240.492C129.177 240.505 129.399 240.609 129.56 240.783C129.72 240.957 129.806 241.187 129.8 241.423C129.793 241.66 129.695 241.885 129.525 242.05C129.356 242.214 129.129 242.307 128.892 242.307C128.656 242.307 128.428 242.214 128.259 242.05C128.089 241.885 127.991 241.66 127.984 241.423C127.978 241.187 128.064 240.957 128.225 240.783C128.385 240.609 128.607 240.505 128.843 240.492" fill="#E0E0E0"/>
<path d="M107.87 241.18H122.504L131.215 249.122L126.275 259.658L116.5 251.863L108.475 251.92L107.87 241.18Z" fill="#FFBE9D"/>
<path d="M131.207 249.122L131.788 252.149C131.872 252.596 131.822 253.058 131.642 253.476C131.463 253.894 131.164 254.249 130.782 254.496L129.964 255.044L130.078 255.781C130.146 256.193 130.079 256.616 129.887 256.987C129.696 257.358 129.39 257.658 129.015 257.842L128.197 258.226C128.162 258.445 128.084 258.655 127.969 258.843C127.853 259.032 127.701 259.196 127.522 259.326C127.342 259.456 127.139 259.549 126.924 259.6C126.708 259.652 126.485 259.66 126.266 259.625L125.89 254.971L131.207 249.122Z" fill="#FFBE9D"/>
<path d="M130.062 256.083C129.796 255.251 129.62 254.392 129.539 253.522C129.319 252.677 129.19 251.81 129.154 250.938C129.608 251.704 129.888 252.562 129.972 253.449C130.188 254.311 130.219 255.208 130.062 256.083Z" fill="#EB996E"/>
<path d="M128.172 258.439C128.05 258.439 127.87 257.736 127.665 256.86C127.478 256.336 127.394 255.781 127.42 255.224C127.534 255.184 127.87 255.862 128.074 256.77C128.268 257.305 128.302 257.885 128.172 258.439Z" fill="#EB996E"/>
</svg>
